<?xml version="1.0" encoding="utf-8"?>
<svg version="1.0" xmlns="http://www.w3.org/2000/svg" width="300.000000pt" height="300.000000pt" viewBox="0 -5.499 219.633 305.499" preserveAspectRatio="xMidYMid meet">
  <g transform="matrix(0.135315, 0, 0, -0.14395, -94.124773, 368.4755)" fill="#000000" stroke="none" style="">
    <path d="M1387 2523 c-14 -14 -6 -21 34 -27 50 -8 95 -30 132 -64 31 -29 34 -24 12 18 -18 35 -16 36 34 10 81 -41 104 -111 55 -169 -19 -23 -34 -31 -57 -30 l-32 1 29 8 c16 5 33 15 37 22 14 21 10 65 -7 79 -13 11 -14 9 -8 -17 l7 -29 -22 19 c-13 12 -21 14 -21 7 0 -7 -12 1 -26 18 -14 18 -35 36 -46 42 -17 9 -16 5 7 -25 32 -42 29 -43 -25 -16 -41 21 -105 26 -130 10 -10 -6 -2 -9 27 -7 24 0 48 -4 55 -11 9 -9 6 -12 -17 -12 -17 0 -57 -13 -90 -29 -55 -26 -75 -43 -130 -110 l-20 -24 25 8 c25 7 25 7 -5 -24 -23 -25 -26 -31 -10 -25 31 11 -31 -53 -84 -87 -49 -31 -41 -38 15 -14 48 20 31 -3 -20 -26 -47 -21 -113 -24 -151 -7 -33 15 -32 28 2 28 40 0 103 34 148 80 l39 40 -37 0 c-20 0 -37 5 -37 10 0 6 13 10 29 10 37 0 81 36 127 107 20 30 53 66 73 80 34 24 27 26 -24 8 -13 -4 -8 4 15 25 21 18 59 38 94 48 56 15 58 17 34 27 -14 5 -32 16 -42 24 -14 11 -16 11 -16 -2 0 -8 -11 -18 -24 -21 -30 -7 -96 -70 -96 -91 0 -22 -85 -130 -123 -156 -50 -35 -69 -58 -63 -77 5 -17 -6 -44 -17 -43 -4 0 -31 -11 -61 -24 -90 -40 -93 -78 -11 -115 50 -23 50 -21 35 -138 -8 -61 -7 -77 6 -98 9 -13 24 -24 33 -24 29 0 90 49 110 89 20 37 20 39 1 73 -17 33 -18 38 -3 84 25 74 41 110 57 123 12 10 14 5 14 -33 0 -26 -3 -46 -7 -46 -4 0 -12 -10 -18 -23 -8 -16 -5 -62 10 -170 21 -145 21 -147 2 -161 -13 -9 -25 -11 -36 -5 -22 12 -114 -36 -142 -73 -17 -23 -19 -31 -9 -53 11 -23 9 -26 -14 -35 -14 -6 -28 -10 -31 -10 -2 0 -35 32 -72 70 -42 43 -76 70 -89 70 -39 0 -69 -18 -74 -45 -5 -21 6 -37 61 -94 115 -118 106 -99 77 -180 l-25 -70 26 -21 c30 -24 39 -24 73 -5 24 14 24 14 -22 15 -27 0 -48 2 -48 4 0 3 16 40 35 82 l35 77 -21 15 c-11 8 -17 18 -12 22 9 9 193 54 197 49 1 -2 0 -28 -2 -56 -4 -56 -22 -74 -22 -23 0 17 -2 30 -5 30 -2 0 -29 -11 -59 -24 -49 -22 -58 -31 -85 -85 -17 -33 -31 -63 -31 -66 0 -3 16 -5 35 -5 33 0 35 2 25 20 -9 17 -8 20 7 20 11 0 151 -133 331 -313 316 -317 336 -342 295 -366 -28 -16 4 -13 35 4 15 8 33 18 40 23 8 6 -93 113 -338 357 -192 192 -350 353 -350 357 0 5 11 13 24 19 21 10 30 5 82 -43 67 -61 206 -188 469 -427 l180 -164 22 -86 c12 -47 22 -90 22 -96 1 -5 -17 8 -38 29 -38 37 -40 38 -78 26 -21 -7 -42 -15 -47 -18 -15 -8 18 -22 55 -22 20 0 42 -7 49 -15 19 -23 57 -18 75 9 14 21 14 30 0 96 -17 83 -38 115 -120 186 -30 27 -55 53 -55 59 0 6 88 98 196 205 170 169 197 192 204 175 4 -12 3 -23 -4 -27 -6 -4 6 -8 27 -8 20 0 37 2 37 5 0 3 -14 33 -30 66 -27 53 -36 62 -87 84 -30 14 -57 25 -59 25 -2 0 -4 -13 -4 -30 0 -51 -18 -33 -22 23 -2 28 -3 54 -2 56 4 5 188 -40 197 -49 5 -4 -1 -14 -13 -23 l-21 -14 36 -78 c19 -43 35 -79 35 -81 0 -2 -18 -4 -40 -4 -43 0 -54 -14 -17 -24 34 -9 44 -7 61 10 22 21 20 57 -4 105 -12 22 -18 49 -15 59 3 10 42 55 85 100 44 44 80 90 80 100 0 26 -37 50 -77 50 -25 0 -40 -9 -65 -37 -80 -90 -98 -104 -121 -97 -35 10 -43 22 -30 43 11 17 6 21 -39 40 -27 11 -54 18 -59 15 -5 -2 -87 -96 -183 -208 l-175 -203 -3 -69 -3 -70 -145 158 c-240 263 -224 241 -212 288 9 37 8 40 -12 40 -20 1 -20 1 4 21 l25 21 -25 -3 c-17 -3 -26 -11 -28 -25 -5 -32 -37 -36 -63 -8 -26 28 -24 31 56 73 l44 23 28 -33 c130 -156 325 -384 328 -384 2 0 77 86 165 190 89 105 170 198 179 208 18 18 20 18 80 -12 66 -34 78 -29 32 11 -69 62 -99 62 -159 3 -25 -25 -51 -45 -59 -45 -7 0 -13 -5 -13 -12 0 -6 -3 -8 -7 -5 -3 4 -13 1 -21 -5 -8 -7 -24 -17 -36 -23 -11 -7 -20 -17 -18 -24 1 -7 -1 -10 -6 -7 -5 3 -24 -10 -42 -29 -35 -36 -60 -45 -60 -22 0 17 46 60 86 80 17 9 45 29 62 45 17 16 34 27 38 23 4 -3 4 0 0 7 -8 14 -14 11 -148 -72 -37 -22 -68 -47 -68 -53 0 -7 -65 21 -150 65 -82 42 -149 79 -149 82 0 3 6 13 13 22 12 16 24 11 146 -62 74 -43 138 -76 144 -72 178 109 229 142 222 142 -5 0 0 10 11 23 17 18 21 37 22 109 3 116 -15 122 -24 8 -6 -73 -11 -92 -25 -100 -28 -15 -35 -12 -18 8 9 9 19 40 22 67 4 28 10 65 13 83 3 20 1 32 -6 32 -6 0 -11 -8 -11 -19 0 -10 -7 -24 -15 -31 -12 -10 -15 -9 -16 6 0 18 -1 18 -9 -1 -5 -11 -9 -57 -9 -102 -1 -46 -5 -83 -10 -83 -5 0 -18 -3 -28 -6 -16 -5 -17 -4 -2 8 12 10 19 39 24 101 8 89 3 108 -16 60 -10 -27 -11 -27 -25 -9 -12 18 -14 8 -14 -86 0 -99 -1 -107 -21 -113 -25 -8 -39 2 -15 11 13 5 16 23 16 110 0 63 -4 104 -10 104 -5 0 -10 -5 -10 -12 0 -6 -3 -8 -7 -4 -11 10 30 40 120 87 42 23 77 45 77 50 0 5 6 9 14 9 7 0 19 7 26 15 15 19 21 21 -153 -55 l-127 -55 0 -167 c0 -93 -2 -168 -4 -168 -2 0 -60 33 -128 74 l-123 73 -23 158 c-13 86 -21 159 -19 161 2 2 59 -18 127 -46 68 -27 125 -48 127 -46 2 2 -48 36 -112 76 -63 40 -115 75 -115 79 0 4 13 27 29 52 30 46 58 75 102 103 l27 17 48 -61 c26 -33 49 -59 51 -57 2 2 -11 34 -27 71 -17 37 -28 75 -25 84 6 18 51 72 59 72 3 0 7 -101 8 -223 l3 -224 127 51 c70 27 123 53 116 57 -11 7 -136 -24 -170 -42 -31 -17 -38 -1 -38 81 0 72 2 80 26 99 29 23 47 19 114 -25 22 -15 43 -24 47 -20 10 10 -47 64 -97 92 l-45 25 -32 -35 c-18 -20 -33 -32 -33 -28 0 19 36 92 46 92 30 0 91 -36 136 -81 28 -28 52 -48 54 -46 10 10 -39 87 -70 111 -41 31 -44 44 -16 76 26 30 34 62 26 103 -13 64 -106 135 -160 121 -14 -3 -37 1 -54 10 -31 16 -103 22 -115 9z m45 -238 c-12 -15 -52 -48 -90 -75 -38 -27 -72 -56 -75 -64 -12 -31 -25 -16 -17 19 4 19 6 35 4 35 -3 0 10 15 27 34 17 19 54 43 82 54 94 37 100 36 69 -3z m-316 -320 c-14 -20 -28 -53 -31 -74 -4 -20 -8 -47 -11 -61 -5 -24 -4 -24 30 9 41 40 44 36 16 -20 -27 -51 -114 -108 -95 -61 4 9 11 50 16 91 12 87 29 125 67 145 15 8 28 13 30 11 2 -1 -8 -19 -22 -40z m-267 -408 c8 -11 3 -16 -23 -24 -31 -10 -37 -8 -57 13 l-22 24 45 0 c26 0 50 -6 57 -13z m1382 -11 c-20 -21 -26 -23 -57 -13 -47 14 -27 37 34 37 l45 0 -22 -24z m-301 -16 c11 -21 6 -40 -12 -40 -5 0 -8 7 -4 15 3 8 -4 21 -17 30 l-21 15 21 0 c12 0 27 -9 33 -20z m-415 -170 c0 -27 2 -50 5 -50 3 0 57 53 122 117 65 64 120 115 122 112 3 -3 -34 -50 -82 -105 -48 -54 -104 -120 -125 -144 l-38 -45 -27 31 c-151 172 -222 255 -222 258 0 3 55 -24 123 -59 l122 -64 0 -51z m-625 145 c13 -15 13 -15 -34 -29 -13 -4 -36 11 -36 25 0 7 21 15 46 18 6 0 17 -6 24 -14z m1289 -1 c8 -8 -21 -33 -35 -28 -48 14 -47 14 -33 30 11 14 54 13 68 -2z m-1251 -46 c7 -7 12 -15 12 -19 0 -12 -44 -18 -57 -7 -23 19 -16 28 28 37 3 0 10 -4 17 -11z m1201 -4 c12 -10 -24 -34 -43 -28 -29 9 -31 11 -16 29 11 13 43 13 59 -1z m-281 -25 c2 -17 -3 -29 -13 -32 -12 -5 -14 -1 -9 18 5 19 2 25 -10 25 -9 0 -16 5 -16 11 0 6 10 9 23 7 15 -2 23 -11 25 -29z m-40 -31 c-2 -7 12 -17 30 -22 49 -15 42 -40 -29 -102 -13 -11 -67 -60 -119 -108 -129 -118 -130 -119 -130 -57 0 27 6 56 13 63 7 7 44 49 81 93 112 129 162 172 154 133z m-597 -102 c33 -35 69 -77 81 -92 20 -26 20 -27 3 -14 -60 44 -165 144 -165 156 0 27 23 13 81 -50z m785 49 c18 -13 7 -26 -194 -227 l-213 -212 -30 30 -30 31 194 176 c270 245 243 225 273 202z"/>
    <path d="M1270 1873 c5 -10 16 -58 23 -108 9 -66 17 -91 28 -93 13 -2 14 5 8 50 -4 29 -8 74 -8 100 -1 36 -6 50 -20 58 -30 16 -43 13 -31 -7z"/>
    <path d="M1347 1848 c17 -21 27 -188 12 -188 -13 0 20 -29 34 -30 4 0 7 47 7 105 0 104 0 106 -26 115 -33 13 -38 13 -27 -2z"/>
    <path d="M1428 1818 c17 -17 17 -198 0 -198 -12 0 30 -39 42 -40 3 0 4 53 3 117 -2 102 -5 118 -20 125 -28 11 -38 9 -25 -4z"/>
    <path d="M1212 1451 c-16 -9 -13 -42 4 -48 6 -2 10 7 10 19 -1 14 4 22 12 20 8 -1 11 2 7 8 -7 12 -16 12 -33 1z"/>
    <path d="M1278 790 c-55 -48 -73 -84 -86 -169 -9 -61 -8 -66 15 -88 l23 -24 34 20 c20 12 50 21 75 21 56 0 52 16 -9 34 l-51 15 -35 -37 c-33 -34 -35 -35 -30 -12 4 14 14 57 22 96 15 65 21 75 65 113 l49 42 30 -33 c16 -18 30 -36 30 -40 0 -3 -26 -29 -57 -57 -31 -28 -55 -52 -52 -54 2 -2 24 -11 48 -21 46 -18 68 -13 38 8 -23 17 -23 17 18 66 19 23 35 49 35 57 0 24 -40 83 -56 83 -8 0 -14 5 -14 10 0 23 -50 7 -92 -30z"/>
  </g>
</svg>