<?xml version="1.0" standalone="no"?>
<!DOCTYPE svg PUBLIC "-//W3C//DTD SVG 20010904//EN"
 "http://www.w3.org/TR/2001/REC-SVG-20010904/DTD/svg10.dtd">
<svg version="1.0" xmlns="http://www.w3.org/2000/svg"
 width="274.000000pt" height="274.000000pt" viewBox="0 0 274.000000 274.000000"
 preserveAspectRatio="xMidYMid meet">

<g transform="translate(0.000000,274.000000) scale(0.100000,-0.100000)"
fill="#7a7c80" stroke="none">
<path d="M1467 2619 c-103 -24 -188 -102 -224 -206 -18 -52 -22 -59 -19 -30 7
53 48 137 84 172 46 44 39 50 -18 19 -94 -51 -162 -145 -179 -246 l-9 -53 -1
50 c-1 51 21 111 60 166 31 44 7 35 -39 -15 -49 -53 -66 -84 -92 -173 l-20
-68 4 55 c2 30 7 64 11 74 6 13 5 17 -3 12 -6 -3 -20 -31 -31 -62 -37 -97 -22
-224 32 -283 22 -24 22 -24 0 -13 -32 17 -63 91 -70 167 -5 51 -8 63 -16 50
-17 -31 -2 -159 25 -214 26 -54 12 -57 -23 -5 -25 38 -24 25 2 -31 12 -25 35
-56 51 -70 39 -33 12 -33 -37 0 l-37 26 22 -31 c12 -17 39 -40 61 -53 24 -13
39 -29 39 -41 0 -31 21 -141 29 -154 6 -10 14 -9 37 3 37 19 44 19 44 -2 0
-10 -15 -25 -33 -33 -42 -19 -41 -42 1 -51 52 -11 50 -19 -6 -19 -29 0 -52 -4
-52 -9 0 -5 -3 -18 -6 -28 -6 -15 -4 -16 7 -5 15 14 59 16 59 3 0 -27 -14 -41
-36 -36 -13 3 -35 7 -48 10 -19 4 -29 -2 -45 -23 -32 -46 -30 -51 42 -76 58
-21 297 -167 297 -182 0 -7 -41 16 -90 51 -99 72 -251 134 -334 136 -23 1 -31
4 -18 6 26 5 26 0 7 53 -19 54 -19 94 -1 113 8 8 38 17 65 21 57 7 56 7 26 95
l-11 33 -12 -41 c-16 -51 -44 -61 -108 -36 -26 10 -56 14 -72 11 l-27 -7 25
20 c27 21 22 35 -12 36 -24 0 -51 58 -118 255 -21 63 -64 167 -94 230 l-55
115 5 -70 c3 -38 7 -75 9 -82 2 -7 -1 -40 -6 -75 l-10 -62 45 -41 c38 -33 52
-56 82 -135 69 -183 66 -171 43 -177 -29 -8 -20 -39 11 -35 25 2 25 2 3 -10
-12 -7 -32 -29 -45 -48 -13 -19 -36 -41 -51 -50 -25 -14 -30 -13 -68 7 -23 12
-39 17 -36 10 31 -78 40 -97 48 -97 5 0 31 12 58 27 64 36 95 27 127 -37 l22
-44 -53 -31 c-66 -37 -98 -64 -113 -92 -19 -35 -15 -52 10 -45 19 5 17 -1 -17
-42 -22 -27 -50 -59 -62 -72 -12 -13 -24 -33 -28 -44 -3 -11 -12 -20 -18 -20
-22 0 -36 -15 -53 -55 -11 -27 -12 -36 -3 -27 7 6 17 12 22 12 5 0 -21 -29
-59 -63 l-68 -64 104 0 c86 0 119 -5 183 -27 242 -81 482 -246 902 -618 71
-63 58 -37 -41 82 -129 155 -320 325 -477 425 -42 27 -75 50 -73 52 7 7 171
-95 251 -156 92 -71 489 -462 543 -536 l37 -50 3 63 c4 84 -22 226 -58 320
-61 159 -194 321 -369 450 -190 141 -349 205 -551 223 l-95 8 120 -4 c134 -4
201 -19 320 -71 44 -19 87 -38 95 -41 23 -9 -69 84 -124 124 -26 20 -76 52
-110 70 -77 43 -34 33 58 -13 54 -27 71 -32 78 -22 12 19 134 -111 164 -175
14 -31 39 -63 61 -80 21 -15 78 -64 126 -109 l88 -80 -27 58 c-34 78 -37 84
-33 84 2 0 29 -7 59 -15 30 -8 66 -15 81 -15 24 0 26 -5 44 -96 10 -52 22 -97
27 -100 5 -3 7 5 4 18 -3 12 -7 47 -11 76 -3 29 -11 64 -17 78 -9 18 -9 27 0
36 6 6 14 10 16 7 5 -5 37 -306 57 -538 17 -202 33 -158 33 89 0 206 -17 324
-60 421 -21 45 -23 60 -14 83 12 32 14 67 2 50 -28 -42 -113 -37 -225 13 -67
30 -121 71 -263 199 -101 91 -152 126 -234 162 -46 20 -49 22 -20 18 51 -9
128 -49 190 -101 30 -25 59 -43 65 -41 5 2 44 -21 86 -50 74 -52 152 -95 195
-108 18 -6 24 0 38 34 9 22 16 42 16 45 0 2 -16 7 -35 11 -47 8 -45 24 4 24
30 0 40 4 44 20 4 16 0 20 -17 20 -12 0 -31 7 -42 15 -24 18 -9 19 55 4 36 -8
62 -27 134 -95 48 -48 90 -84 91 -82 6 7 216 468 216 473 0 3 -8 5 -18 5 -17
0 -112 54 -112 64 0 3 19 -6 43 -19 50 -30 56 -30 55 -7 -1 9 6 41 16 70 10
29 15 56 11 60 -3 4 -54 24 -113 45 -116 40 -78 41 48 1 91 -29 100 -29 100
-4 0 14 -7 20 -23 20 -21 0 -25 7 -36 69 -23 129 -93 245 -195 320 -100 76
-161 101 -271 111 l-70 7 60 2 c78 1 161 -20 246 -65 127 -67 213 -187 249
-348 11 -48 19 -68 19 -51 3 98 -65 241 -159 335 -77 77 -141 113 -246 140
-121 31 -219 23 -317 -27 -48 -24 -129 -96 -159 -143 l-17 -25 9 32 c26 98
144 183 288 208 125 22 252 -5 365 -77 51 -33 41 -32 217 -12 37 5 52 1 84
-21 39 -26 39 -26 24 -3 -8 12 -29 33 -47 45 l-32 22 35 6 c19 4 49 4 68 1
l33 -6 -30 15 c-16 8 -50 14 -75 15 -37 0 -42 3 -27 11 10 6 45 9 78 7 32 -1
59 -2 59 -1 0 8 -52 28 -85 32 l-40 6 50 37 c28 20 59 51 69 70 l19 33 -29
-27 c-63 -58 -198 -104 -249 -84 -25 9 128 156 198 189 32 15 62 27 67 27 5 0
11 4 14 9 16 25 -242 -50 -304 -88 -23 -15 -24 -14 -12 1 8 10 42 31 75 49
l62 31 -65 -7 c-186 -18 -276 -59 -336 -151 -25 -38 -29 -20 -5 19 37 61 135
122 220 138 37 7 30 7 -34 4 -89 -5 -85 9 7 24 52 9 52 9 13 11 -115 6 -190
-13 -267 -66 -49 -34 -77 -73 -100 -138 -17 -49 -17 -50 -12 -11 12 82 70 152
165 201 27 13 49 26 49 28 0 15 -118 -27 -172 -61 -21 -13 -38 -19 -38 -14 0
12 20 27 81 61 55 30 47 36 -24 19z m146 -499 c133 -41 244 -157 288 -302 12
-38 18 -72 15 -75 -3 -4 -62 6 -131 22 -69 15 -123 30 -121 33 3 2 28 -1 56
-7 28 -6 60 -11 71 -11 24 0 21 15 -21 105 -50 109 -137 188 -255 232 l-60 22
46 0 c26 1 76 -8 112 -19z m-401 -73 c-50 -54 -92 -178 -92 -272 l0 -45 43 0
c31 0 38 -3 27 -10 -8 -5 -24 -10 -35 -10 -11 0 -33 -7 -49 -15 -15 -8 -29
-15 -30 -15 -1 0 2 46 5 103 5 84 12 113 33 156 28 54 105 146 114 136 3 -3
-4 -15 -16 -28z m295 -219 c53 -46 112 -97 131 -114 l35 -30 -32 -155 c-34
-162 -68 -288 -81 -302 -9 -11 -210 246 -210 269 0 9 9 48 20 85 l21 69 -26
37 c-14 21 -25 42 -25 48 0 10 63 175 68 175 1 0 46 -37 99 -82z m317 -183
c127 -50 127 -50 122 -79 -4 -16 -8 -32 -11 -34 -2 -3 -29 10 -58 28 -58 35
-209 145 -191 139 6 -2 68 -26 138 -54z m-984 -60 c0 -19 9 -58 20 -87 23 -61
25 -78 8 -78 -17 0 -71 154 -63 180 11 34 35 24 35 -15z m885 -27 c-34 -152
-79 -336 -86 -348 -17 -30 -9 13 31 175 22 88 40 168 40 178 0 9 5 17 10 17 6
0 8 -10 5 -22z m-969 -75 c26 -57 32 -78 22 -84 -18 -12 -25 -4 -43 56 -10 30
-26 62 -36 71 -25 22 -24 34 2 34 15 0 28 -17 55 -77z m994 -155 c-29 -101
-54 -185 -56 -187 -22 -24 15 129 83 344 9 28 18 45 20 38 3 -7 -19 -95 -47
-195z m180 122 c0 -20 -164 -390 -173 -390 -5 0 -7 4 -5 9 2 4 39 94 83 200
71 169 95 215 95 181z m-655 -34 c22 -19 38 -36 35 -39 -3 -3 -25 13 -50 34
-25 21 -40 39 -35 39 6 0 28 -16 50 -34z m-8 -63 c18 -13 38 -33 44 -45 7 -12
-12 -1 -45 27 -75 65 -74 74 1 18z m-354 -387 c266 -68 544 -301 679 -571 47
-93 41 -101 -11 -15 -142 234 -331 415 -538 517 -31 15 -99 41 -152 59 -115
39 -107 43 22 10z"/>
<path d="M1833 1829 c-14 -14 -6 -39 12 -39 21 0 26 15 12 34 -9 13 -15 14
-24 5z"/>
<path d="M1401 1858 c-5 -13 -16 -40 -25 -62 -18 -44 -21 -82 -6 -91 6 -3 17
-19 25 -35 13 -25 13 -34 -5 -86 -11 -31 -20 -67 -20 -78 0 -16 134 -202 180
-249 4 -5 17 23 29 62 28 93 81 350 75 365 -6 12 -218 189 -235 194 -5 2 -13
-7 -18 -20z"/>
<path d="M661 2115 c13 -13 16 -32 13 -83 l-3 -67 12 60 c14 63 9 88 -20 99
-17 7 -17 6 -2 -9z"/>
<path d="M1301 1064 c46 -50 165 -121 232 -139 82 -22 137 -15 137 18 0 21 -5
22 -73 23 -80 0 -175 34 -261 93 -57 38 -67 39 -35 5z"/>
<path d="M1562 1024 c3 -32 7 -38 28 -39 31 -3 63 12 55 26 -4 5 -24 18 -46
30 l-40 20 3 -37z"/>
<path d="M1524 775 c-9 -23 15 -48 32 -34 10 8 11 15 1 30 -14 23 -26 24 -33
4z"/>
<path d="M1735 764 c26 -95 37 -184 42 -334 6 -185 13 -194 32 -39 13 112 3
217 -29 301 -21 58 -57 114 -45 72z"/>
<path d="M1565 677 c-9 -23 1 -47 19 -47 24 0 26 14 6 40 -17 22 -19 23 -25 7z"/>
<path d="M1640 531 c0 -22 25 -39 38 -27 8 8 -10 38 -26 44 -7 2 -12 -6 -12
-17z"/>
</g>
</svg>
